<svg xmlns="http://www.w3.org/2000/svg" xmlns:xlink="http://www.w3.org/1999/xlink" viewBox="0 0 69.5 94.9" width="69.5mm" height="94.9mm">
<defs>
<filter id="tint" x="0" y="0" width="1" height="1" color-interpolation-filters="sRGB"><feFlood flood-color="{{ink}}"/><feComposite in2="SourceAlpha" operator="in"/></filter>
<clipPath id="inner"><rect x="9.6" y="9.6" width="50.3" height="75.7" rx="0.8"/></clipPath>
</defs>
<rect width="69.5" height="94.9" fill="{{bg}}"/>
<g clip-path="url(#inner)" stroke="{{ink}}" stroke-width="0.22" opacity="0.35"><line x1="34.75" y1="47.45" x2="104.75" y2="47.45"/><line x1="34.75" y1="47.45" x2="104.41" y2="54.31"/><line x1="34.75" y1="47.45" x2="103.40" y2="61.11"/><line x1="34.75" y1="47.45" x2="101.74" y2="67.77"/><line x1="34.75" y1="47.45" x2="99.42" y2="74.24"/><line x1="34.75" y1="47.45" x2="96.48" y2="80.45"/><line x1="34.75" y1="47.45" x2="92.95" y2="86.34"/><line x1="34.75" y1="47.45" x2="88.86" y2="91.86"/><line x1="34.75" y1="47.45" x2="84.25" y2="96.95"/><line x1="34.75" y1="47.45" x2="79.16" y2="101.56"/><line x1="34.75" y1="47.45" x2="73.64" y2="105.65"/><line x1="34.75" y1="47.45" x2="67.75" y2="109.18"/><line x1="34.75" y1="47.45" x2="61.54" y2="112.12"/><line x1="34.75" y1="47.45" x2="55.07" y2="114.44"/><line x1="34.75" y1="47.45" x2="48.41" y2="116.10"/><line x1="34.75" y1="47.45" x2="41.61" y2="117.11"/><line x1="34.75" y1="47.45" x2="34.75" y2="117.45"/><line x1="34.75" y1="47.45" x2="27.89" y2="117.11"/><line x1="34.75" y1="47.45" x2="21.09" y2="116.10"/><line x1="34.75" y1="47.45" x2="14.43" y2="114.44"/><line x1="34.75" y1="47.45" x2="7.96" y2="112.12"/><line x1="34.75" y1="47.45" x2="1.75" y2="109.18"/><line x1="34.75" y1="47.45" x2="-4.14" y2="105.65"/><line x1="34.75" y1="47.45" x2="-9.66" y2="101.56"/><line x1="34.75" y1="47.45" x2="-14.75" y2="96.95"/><line x1="34.75" y1="47.45" x2="-19.36" y2="91.86"/><line x1="34.75" y1="47.45" x2="-23.45" y2="86.34"/><line x1="34.75" y1="47.45" x2="-26.98" y2="80.45"/><line x1="34.75" y1="47.45" x2="-29.92" y2="74.24"/><line x1="34.75" y1="47.45" x2="-32.24" y2="67.77"/><line x1="34.75" y1="47.45" x2="-33.90" y2="61.11"/><line x1="34.75" y1="47.45" x2="-34.91" y2="54.31"/><line x1="34.75" y1="47.45" x2="-35.25" y2="47.45"/><line x1="34.75" y1="47.45" x2="-34.91" y2="40.59"/><line x1="34.75" y1="47.45" x2="-33.90" y2="33.79"/><line x1="34.75" y1="47.45" x2="-32.24" y2="27.13"/><line x1="34.75" y1="47.45" x2="-29.92" y2="20.66"/><line x1="34.75" y1="47.45" x2="-26.98" y2="14.45"/><line x1="34.75" y1="47.45" x2="-23.45" y2="8.56"/><line x1="34.75" y1="47.45" x2="-19.36" y2="3.04"/><line x1="34.75" y1="47.45" x2="-14.75" y2="-2.05"/><line x1="34.75" y1="47.45" x2="-9.66" y2="-6.66"/><line x1="34.75" y1="47.45" x2="-4.14" y2="-10.75"/><line x1="34.75" y1="47.45" x2="1.75" y2="-14.28"/><line x1="34.75" y1="47.45" x2="7.96" y2="-17.22"/><line x1="34.75" y1="47.45" x2="14.43" y2="-19.54"/><line x1="34.75" y1="47.45" x2="21.09" y2="-21.20"/><line x1="34.75" y1="47.45" x2="27.89" y2="-22.21"/><line x1="34.75" y1="47.45" x2="34.75" y2="-22.55"/><line x1="34.75" y1="47.45" x2="41.61" y2="-22.21"/><line x1="34.75" y1="47.45" x2="48.41" y2="-21.20"/><line x1="34.75" y1="47.45" x2="55.07" y2="-19.54"/><line x1="34.75" y1="47.45" x2="61.54" y2="-17.22"/><line x1="34.75" y1="47.45" x2="67.75" y2="-14.28"/><line x1="34.75" y1="47.45" x2="73.64" y2="-10.75"/><line x1="34.75" y1="47.45" x2="79.16" y2="-6.66"/><line x1="34.75" y1="47.45" x2="84.25" y2="-2.05"/><line x1="34.75" y1="47.45" x2="88.86" y2="3.04"/><line x1="34.75" y1="47.45" x2="92.95" y2="8.56"/><line x1="34.75" y1="47.45" x2="96.48" y2="14.45"/><line x1="34.75" y1="47.45" x2="99.42" y2="20.66"/><line x1="34.75" y1="47.45" x2="101.74" y2="27.13"/><line x1="34.75" y1="47.45" x2="103.40" y2="33.79"/><line x1="34.75" y1="47.45" x2="104.41" y2="40.59"/></g>
<rect x="8.0" y="8.0" width="53.50" height="78.90" rx="1.5" fill="none" stroke="{{ink}}" stroke-width="0.3" opacity="1"/>
<rect x="9.2" y="9.2" width="51.10" height="76.50" rx="1.5" fill="none" stroke="{{ink}}" stroke-width="0.18" opacity="1"/>
<rect x="12.75" y="36.45" width="44" height="22" rx="1.2" fill="{{bg}}" stroke="{{ink}}" stroke-width="0.45"/>
<rect x="13.95" y="37.650000000000006" width="41.6" height="19.6" rx="0.8" fill="none" stroke="{{ink}}" stroke-width="0.18"/>
<image display="{{logo_on}}" href="{{logo}}" x="17.75" y="39.95" width="34" height="15" preserveAspectRatio="xMidYMid meet" filter="{{logo_filter}}"/>
<g display="{{title_on}}" transform="translate(0 {{t_dy}})"><text x="34.75" y="47.45" text-anchor="middle" font-family="CB Display" font-size="{{title_size}}" fill="{{ink}}">{{title}}</text></g>
<text display="{{sub_on}}" x="34.75" y="53.650000000000006" text-anchor="middle" font-family="CB Sans" font-size="{{sub_size}}" letter-spacing="0.25" fill="{{ink}}">{{subtitle}}</text>
<text display="{{mark_on}}" x="34.75" y="51.35" text-anchor="middle" font-family="CB Display" font-size="11" fill="{{ink}}">CB</text>
</svg>
